<?xml version="1.0" standalone="no"?>
<!DOCTYPE svg PUBLIC "-//W3C//DTD SVG 20010904//EN"
 "http://www.w3.org/TR/2001/REC-SVG-20010904/DTD/svg10.dtd">
<svg version="1.0" xmlns="http://www.w3.org/2000/svg"
 width="1378.000000pt" height="1378.000000pt" viewBox="0 0 1378.000000 1378.000000"
 preserveAspectRatio="xMidYMid meet">

<g transform="translate(0.000000,1378.000000) scale(0.100000,-0.100000)"
fill="#000000" stroke="none">
<path d="M7207 12163 c-4 -3 -7 -16 -7 -27 0 -16 19 -31 72 -61 46 -26 102
-70 155 -122 60 -61 89 -83 107 -83 40 0 33 39 -18 102 -45 55 -164 152 -223
182 -33 17 -75 21 -86 9z"/>
<path d="M7052 12001 c-8 -4 -12 -19 -10 -32 2 -18 14 -27 53 -39 126 -39 207
-96 277 -197 21 -31 36 -43 54 -43 58 0 35 65 -58 165 -61 65 -163 124 -248
144 -55 13 -52 13 -68 2z"/>
<path d="M7577 11843 c-15 -14 -7 -43 12 -43 24 0 33 13 25 34 -6 16 -25 21
-37 9z"/>
<path d="M6810 11740 c-201 -4 -555 -8 -787 -9 -488 -1 -477 1 -513 -84 -33
-76 -48 -134 -56 -206 -7 -75 9 -208 31 -255 8 -17 24 -56 35 -86 12 -30 26
-61 32 -67 8 -10 84 -13 320 -13 l310 0 -7 -107 c-4 -60 -8 -220 -8 -358 -1
-160 -5 -253 -12 -257 -5 -4 -33 -8 -60 -8 -68 0 -282 -25 -435 -51 -629 -107
-1285 -391 -1805 -783 -289 -217 -594 -522 -805 -801 -45 -60 -86 -114 -91
-119 -12 -14 -212 122 -205 140 3 7 54 85 114 171 151 221 262 402 339 556 37
73 74 140 82 150 14 17 13 23 -14 75 -45 87 -159 199 -288 285 -62 41 -126 81
-142 89 -80 41 -317 89 -445 90 -110 0 -353 -75 -435 -135 -22 -16 -71 -47
-110 -70 -101 -59 -332 -289 -415 -413 -8 -13 -47 -65 -86 -116 -148 -193
-317 -571 -381 -853 -41 -181 -16 -448 55 -590 97 -196 238 -336 447 -444 47
-25 82 -34 160 -43 56 -6 125 -8 155 -4 l55 7 85 106 c47 59 123 157 170 218
47 61 106 136 131 166 25 30 80 104 122 164 42 61 82 118 89 129 13 17 21 13
125 -59 l112 -77 -49 -99 c-375 -747 -518 -1623 -399 -2454 65 -454 188 -852
394 -1270 295 -600 719 -1109 1253 -1505 l141 -105 -32 -17 c-18 -9 -39 -20
-47 -24 -63 -31 -210 -171 -234 -224 -6 -13 -21 -35 -32 -48 -41 -46 -49 -58
-86 -130 -21 -40 -38 -81 -38 -91 0 -11 -4 -22 -9 -25 -5 -4 -12 -24 -16 -46
-4 -22 -10 -42 -15 -45 -5 -3 -11 -24 -15 -48 -3 -23 -14 -58 -23 -77 -14 -28
-17 -70 -19 -215 l-1 -180 -54 -13 c-49 -12 -97 -33 -155 -66 -25 -14 -63 -59
-63 -74 0 -6 -6 -12 -12 -15 -16 -5 -15 -156 0 -166 6 -3 12 -15 14 -26 3 -20
-3 -20 -396 -23 -220 -1 -404 -6 -410 -11 -6 -5 -32 -12 -58 -15 -26 -4 -50
-11 -53 -17 -4 -5 -13 -9 -21 -9 -18 0 -101 -38 -130 -59 -12 -9 -32 -23 -44
-31 -86 -57 -163 -134 -197 -199 -15 -28 -18 -177 -3 -186 5 -3 10 -21 10 -39
0 -17 4 -36 8 -42 5 -5 14 -27 20 -50 12 -42 84 -124 109 -124 7 0 13 -4 13
-9 0 -16 33 -22 158 -26 69 -3 130 -9 136 -14 13 -10 127 -18 381 -27 99 -4
185 -10 190 -14 6 -5 150 -11 320 -15 171 -4 315 -11 321 -16 14 -11 576 -32
634 -24 42 6 119 33 163 57 11 5 44 13 75 18 31 5 70 16 86 24 79 36 144 69
171 86 17 11 40 24 53 30 12 5 22 14 22 19 0 6 15 32 33 58 31 46 32 52 31
142 -1 51 -6 96 -11 100 -6 3 -13 22 -17 41 -11 56 -46 121 -101 185 -97 113
-103 135 -60 219 27 53 31 81 15 91 -5 3 -10 14 -10 25 0 33 -85 116 -133 129
-23 7 -49 11 -57 9 -29 -6 -40 291 -12 325 6 6 13 29 17 50 4 20 11 37 16 37
5 0 9 6 9 13 0 7 13 31 30 53 16 21 30 44 30 50 0 5 16 27 35 48 19 21 35 42
35 47 0 15 151 137 178 144 37 9 74 34 67 45 -3 5 13 1 37 -9 80 -34 351 -119
493 -155 169 -43 375 -79 573 -103 205 -24 679 -24 884 0 482 57 900 173 1322
369 113 52 299 149 365 189 14 9 24 10 29 4 4 -5 23 -19 42 -29 35 -20 150
-128 150 -141 0 -4 14 -24 30 -44 46 -55 47 -56 55 -82 4 -13 18 -37 30 -54
13 -16 26 -41 29 -55 8 -27 18 -54 39 -97 13 -28 16 -326 3 -358 -5 -14 -9
-15 -21 -5 -36 30 -195 -96 -195 -155 0 -14 -4 -25 -10 -25 -15 0 -12 -54 5
-86 8 -16 15 -37 15 -46 0 -9 5 -20 10 -23 27 -16 -5 -119 -49 -159 -12 -11
-21 -24 -21 -30 0 -5 -13 -24 -29 -41 -40 -41 -79 -117 -87 -171 -3 -24 -10
-47 -15 -50 -5 -3 -9 -25 -9 -49 0 -24 -5 -47 -10 -50 -13 -8 -13 -62 0 -70 6
-3 10 -16 10 -29 0 -13 11 -43 25 -67 14 -24 28 -51 32 -59 11 -24 45 -50 91
-70 12 -5 22 -14 22 -19 0 -5 12 -12 27 -16 15 -3 38 -14 52 -24 14 -10 37
-22 51 -26 14 -4 28 -12 31 -17 3 -5 30 -11 60 -15 30 -3 63 -12 74 -19 11 -8
30 -14 42 -14 13 0 23 -4 23 -9 0 -5 14 -13 32 -16 18 -4 39 -11 48 -15 60
-30 67 -30 180 -20 63 5 174 10 245 10 78 0 135 4 141 10 7 7 107 13 255 17
134 3 249 9 254 13 6 4 145 11 310 15 165 4 305 11 310 15 6 5 69 12 140 16
72 4 135 11 141 16 7 5 58 10 115 12 167 6 182 10 255 80 40 39 64 69 64 83 0
12 5 25 10 28 6 3 10 17 10 30 0 13 5 25 12 27 8 3 12 48 12 154 1 145 0 151
-24 182 -35 44 -150 162 -159 162 -5 0 -16 9 -26 20 -10 11 -23 20 -28 20 -6
0 -18 6 -26 14 -28 25 -109 66 -130 66 -12 0 -21 4 -21 9 0 5 -21 12 -47 16
-27 4 -53 11 -59 16 -6 5 -199 10 -430 11 -413 3 -419 3 -416 23 2 11 5 39 9
63 3 23 10 45 14 48 12 7 12 61 0 68 -5 3 -12 22 -15 41 -4 19 -10 35 -14 35
-4 0 -15 14 -24 30 -9 17 -24 30 -33 30 -8 0 -15 4 -15 10 0 11 -81 50 -104
50 -8 0 -17 4 -20 9 -4 5 -24 12 -47 16 -44 8 -59 27 -41 56 14 22 17 305 3
313 -4 3 -11 28 -15 55 -4 28 -11 53 -15 56 -5 3 -12 28 -16 57 -4 29 -11 60
-16 70 -5 10 -13 26 -18 37 -5 10 -13 36 -16 57 -11 67 -114 261 -156 294 -3
3 -10 16 -14 29 -10 31 -14 37 -109 137 -44 46 -85 84 -92 84 -7 0 -17 6 -21
13 -4 8 -15 17 -23 20 -8 4 -35 18 -59 32 -24 14 -50 25 -57 25 -36 0 -18 30
73 124 767 778 1203 1843 1203 2936 0 757 -212 1516 -605 2169 l-69 114 95 88
c51 49 97 89 101 89 3 0 73 -75 156 -167 192 -217 361 -387 492 -498 58 -49
110 -96 116 -104 10 -12 20 -13 65 -3 119 27 260 119 416 269 108 105 113 112
171 233 33 69 67 149 76 179 9 29 21 59 27 67 17 21 23 221 10 330 -9 68 -28
144 -61 241 -56 161 -66 184 -148 314 -188 302 -454 588 -707 761 -49 34 -109
74 -131 90 -23 15 -45 28 -49 28 -3 0 -25 13 -49 29 -63 43 -159 88 -262 121
-74 23 -117 30 -220 35 -71 4 -134 8 -141 10 -32 10 -233 -53 -338 -107 -167
-84 -343 -260 -391 -390 -19 -52 -44 -164 -44 -196 0 -38 444 -614 613 -797
l38 -40 -33 -25 c-18 -14 -52 -46 -76 -72 l-44 -47 -202 203 c-289 293 -509
468 -833 664 -519 313 -1085 505 -1698 577 -71 8 -151 15 -176 15 l-47 0 5
103 c2 56 9 115 14 131 5 16 9 117 9 224 0 118 4 208 11 226 l11 31 212 0
c256 1 342 10 374 38 21 20 37 63 61 170 19 81 14 257 -10 345 -27 102 -76
187 -109 188 -14 0 -189 -3 -390 -6z m-540 -80 c36 1 253 3 484 6 309 3 422 1
432 -7 14 -12 28 -39 55 -109 19 -48 19 -308 0 -370 -23 -77 -32 -89 -70 -97
-20 -4 -158 -7 -308 -7 -249 1 -272 0 -276 -16 -2 -9 -2 -23 2 -31 8 -18 -4
-341 -19 -494 -6 -66 -13 -147 -15 -180 l-3 -60 -160 -3 -161 -2 -5 32 c-8 50
0 337 13 473 21 210 23 254 13 271 -9 16 -36 17 -326 15 l-316 -2 -28 58 c-26
57 -27 62 -27 243 0 164 3 189 20 224 30 60 60 65 370 60 143 -2 289 -4 325
-4z m3853 -1221 c47 -9 134 -39 217 -76 47 -21 190 -107 270 -162 36 -25 79
-54 95 -65 109 -76 326 -278 406 -379 40 -51 96 -121 124 -157 133 -167 216
-309 270 -465 61 -175 77 -257 78 -400 1 -156 -9 -191 -112 -408 -44 -91 -65
-121 -134 -193 -106 -110 -198 -182 -300 -238 -118 -64 -134 -65 -190 -19
-164 136 -336 300 -423 404 -34 41 -121 136 -298 330 -28 30 -100 113 -161
184 -60 71 -147 166 -191 210 -76 75 -251 278 -303 353 -13 19 -69 91 -125
162 -196 249 -216 279 -216 322 0 54 44 182 83 238 43 63 171 180 263 240 73
48 184 96 287 125 57 16 262 13 360 -6z m-7523 -413 c168 -33 207 -49 354
-144 107 -71 217 -172 260 -241 26 -41 27 -47 16 -84 -15 -50 -127 -266 -193
-372 -54 -86 -58 -93 -175 -265 -43 -63 -134 -199 -204 -301 -69 -102 -150
-219 -180 -260 -30 -41 -66 -98 -81 -127 -28 -53 -85 -134 -192 -269 -33 -42
-100 -129 -150 -194 -49 -64 -123 -158 -163 -207 -68 -85 -76 -91 -118 -98
-63 -9 -218 13 -268 38 -149 75 -281 189 -374 321 -71 103 -97 169 -122 321
-24 137 -24 139 -7 261 10 68 28 157 42 199 14 42 25 81 25 87 0 6 7 25 15 42
8 18 26 66 41 107 53 150 178 379 286 521 224 296 333 407 508 515 140 87 157
95 245 124 158 53 268 59 435 26z m4270 -385 c398 -60 695 -151 1045 -321 495
-241 955 -632 1287 -1095 515 -718 730 -1616 598 -2488 -92 -603 -331 -1149
-716 -1632 -112 -141 -397 -426 -539 -539 -419 -335 -904 -565 -1420 -676
-1002 -214 -2036 29 -2840 666 -147 117 -469 441 -579 584 -390 504 -613 1041
-703 1690 -21 157 -25 621 -5 780 90 736 368 1360 843 1895 443 499 992 850
1609 1028 226 66 428 104 695 131 22 2 164 2 315 1 213 -3 306 -8 410 -24z
m2968 -772 c30 -35 86 -99 125 -143 103 -113 102 -106 25 -179 -35 -34 -73
-74 -82 -89 -26 -39 -49 -35 -81 15 -42 62 -203 275 -215 282 -25 16 -5 47 73
114 45 39 87 69 92 68 6 -2 34 -33 63 -68z m-7062 -278 c21 -16 64 -42 94 -58
30 -17 56 -38 58 -47 2 -9 -25 -61 -60 -114 -35 -54 -83 -134 -108 -179 -25
-46 -50 -83 -55 -83 -10 0 -104 64 -115 78 -3 4 -29 25 -57 46 -29 21 -53 43
-53 50 0 11 44 81 64 102 6 6 45 61 86 122 41 61 82 112 91 112 8 0 33 -13 55
-29z m7234 -6930 c0 -5 14 -12 30 -16 17 -4 30 -10 30 -14 0 -5 15 -12 33 -17
18 -5 36 -19 42 -32 5 -12 13 -22 17 -22 4 0 11 -18 14 -40 4 -22 10 -40 15
-40 12 0 12 -47 0 -54 -4 -3 -11 -23 -14 -45 -5 -42 -36 -81 -64 -81 -10 0
-31 -11 -48 -24 l-29 -24 134 -6 c164 -7 98 -7 518 0 232 4 352 3 352 -3 0 -6
22 -13 50 -17 27 -4 52 -11 55 -16 3 -6 17 -10 31 -10 13 0 24 -4 24 -9 0 -5
14 -12 30 -16 17 -4 30 -10 30 -15 0 -4 8 -11 18 -14 34 -13 72 -37 72 -47 0
-5 6 -9 13 -9 17 0 127 -108 127 -125 0 -8 4 -15 8 -15 5 0 17 -15 27 -33 15
-28 17 -51 13 -150 -3 -71 -9 -122 -16 -129 -7 -7 -12 -22 -12 -35 0 -13 -4
-23 -9 -23 -5 0 -12 -15 -15 -33 -4 -20 -21 -48 -44 -69 -30 -29 -49 -38 -103
-47 -36 -6 -87 -8 -112 -5 -32 5 -47 3 -47 -5 0 -6 -18 -11 -44 -11 -25 0 -47
-4 -50 -9 -3 -4 -65 -11 -138 -15 -73 -4 -137 -11 -143 -16 -5 -4 -148 -11
-317 -15 -170 -4 -308 -11 -308 -15 0 -4 -108 -10 -241 -13 -148 -4 -246 -10
-254 -17 -15 -12 -555 -13 -555 0 0 4 -18 10 -40 14 -22 3 -40 11 -40 16 0 6
-9 10 -21 10 -11 0 -33 6 -47 14 -49 25 -102 46 -117 46 -8 0 -15 5 -15 10 0
6 -12 10 -27 10 -16 1 -46 9 -68 20 -22 11 -45 19 -51 20 -7 0 -14 6 -17 13
-3 8 -22 22 -42 31 -20 10 -39 25 -42 34 -4 9 -12 21 -20 25 -7 4 -13 19 -13
32 0 13 -6 25 -12 27 -15 5 -15 197 0 207 5 3 13 30 17 59 4 28 11 52 16 52 5
0 9 11 9 25 0 13 14 40 30 58 17 19 30 38 30 42 0 4 18 25 40 46 22 22 43 53
47 69 3 17 10 33 14 36 15 9 10 80 -8 116 -31 61 -33 68 -33 86 0 43 68 142
97 142 7 0 13 5 13 10 0 6 19 10 43 10 50 0 61 -14 73 -89 10 -66 51 -103 120
-109 31 -3 54 -9 54 -16 0 -7 3 -7 8 1 6 9 71 14 227 18 120 3 221 9 225 14 3
4 45 11 95 14 51 3 91 10 93 16 2 6 9 11 16 11 15 0 106 94 106 109 0 6 4 11
9 11 5 0 13 14 16 32 12 52 27 68 62 68 18 0 33 -4 33 -9z m-6577 -245 c9 -7
17 -18 17 -25 0 -24 38 -80 80 -119 51 -47 91 -62 168 -62 29 0 62 -5 72 -10
11 -6 110 -12 221 -15 112 -3 205 -7 207 -10 5 -4 60 1 108 10 39 8 73 51 81
102 10 59 39 78 95 62 38 -10 98 -68 98 -94 0 -8 5 -15 10 -15 6 0 10 -13 10
-30 0 -16 -4 -30 -10 -30 -5 0 -10 -8 -10 -18 0 -10 -7 -27 -15 -38 -32 -42
-8 -122 59 -194 65 -70 93 -112 101 -150 4 -19 11 -40 16 -46 5 -6 12 -33 15
-60 3 -27 11 -59 17 -72 8 -17 8 -28 -1 -42 -7 -11 -12 -28 -12 -37 0 -10 -7
-29 -15 -43 -8 -14 -19 -35 -24 -47 -6 -12 -29 -31 -53 -42 -24 -12 -63 -32
-88 -46 -25 -13 -57 -25 -72 -25 -15 0 -30 -4 -33 -10 -3 -5 -13 -10 -21 -10
-8 0 -35 -9 -60 -20 -24 -11 -59 -23 -77 -27 -17 -3 -37 -9 -42 -14 -6 -4 -28
-14 -50 -21 -52 -18 -519 -25 -539 -9 -9 7 -100 14 -242 18 -126 3 -233 9
-239 13 -5 4 -136 11 -289 15 -154 4 -314 11 -355 16 -42 5 -121 14 -176 19
-55 5 -116 14 -135 19 -19 6 -77 12 -128 15 -90 5 -93 5 -126 40 -32 35 -76
130 -76 166 0 10 -5 22 -10 25 -6 3 -10 43 -10 88 0 89 13 119 84 196 36 39
156 121 206 140 19 8 40 18 45 22 6 3 26 10 45 14 19 4 41 12 49 19 10 8 130
11 405 12 605 1 610 2 597 18 -7 8 -25 18 -41 21 -46 10 -79 42 -86 83 -4 20
-11 43 -16 49 -7 9 -5 25 6 50 35 79 44 88 117 125 82 41 96 44 122 24z"/>
<path d="M6364 9432 c-22 -14 -33 -51 -40 -129 -6 -73 -4 -85 17 -122 12 -22
26 -41 31 -41 5 0 17 15 29 33 17 28 20 45 17 130 -3 80 -7 101 -23 117 -11
11 -25 16 -31 12z"/>
<path d="M4741 9037 c-18 -18 -13 -44 29 -126 40 -80 78 -121 111 -121 16 0
19 8 19 45 0 47 -7 63 -72 151 -38 53 -68 70 -87 51z"/>
<path d="M6292 9000 c-12 -11 -24 -31 -28 -44 -8 -33 21 -84 51 -92 14 -3 25
-8 25 -10 0 -2 -9 -75 -20 -161 -31 -253 -39 -373 -55 -813 -22 -619 -34 -794
-77 -1127 -23 -181 -20 -206 31 -236 44 -26 86 -22 123 12 38 34 36 -15 20
436 -9 243 -8 387 4 755 15 427 14 1020 -2 1107 -5 26 -2 32 16 38 29 9 53 66
41 99 -21 53 -89 73 -129 36z"/>
<path d="M7912 8929 c-43 -46 -92 -145 -92 -185 0 -28 4 -34 20 -34 39 0 77
41 115 121 20 43 35 88 33 101 -5 36 -41 35 -76 -3z"/>
<path d="M3534 7886 c-3 -8 -1 -23 5 -34 13 -24 108 -89 161 -109 43 -17 90
-11 90 11 0 29 -56 80 -124 112 -75 36 -123 43 -132 20z"/>
<path d="M4735 7811 c-215 -98 -293 -609 -138 -914 47 -94 133 -167 195 -167
43 0 106 40 148 95 176 228 166 723 -18 927 -35 39 -100 78 -132 78 -8 0 -33
-9 -55 -19z m103 -17 c73 -30 123 -98 166 -225 127 -377 -40 -892 -261 -808
-134 50 -233 349 -204 612 25 220 97 373 196 418 49 23 56 23 103 3z"/>
<path d="M4737 7205 c-50 -17 -76 -41 -98 -90 -25 -54 -24 -90 6 -141 45 -76
128 -109 203 -79 132 53 143 218 18 289 -56 32 -85 37 -129 21z m147 -46 c22
-17 26 -28 26 -70 0 -40 -5 -55 -25 -74 -28 -29 -51 -33 -111 -20 -29 6 -58
68 -50 108 13 65 106 98 160 56z"/>
<path d="M7654 7811 c-58 -26 -110 -85 -149 -166 -47 -99 -65 -182 -72 -320
-11 -244 58 -463 175 -552 85 -64 140 -58 222 27 107 109 156 283 147 520 -5
150 -21 219 -71 326 -41 86 -83 136 -140 163 -51 25 -60 26 -112 2z m116 -23
c83 -42 151 -175 181 -352 15 -90 6 -320 -16 -401 -26 -94 -80 -198 -124 -238
-87 -79 -189 -54 -259 63 -75 126 -107 278 -99 465 13 279 117 476 257 484 9
1 36 -9 60 -21z"/>
<path d="M7640 7201 c-47 -25 -93 -99 -93 -151 0 -73 75 -141 155 -140 92 2
171 103 148 190 -27 100 -125 147 -210 101z m56 -31 c37 -14 53 -38 54 -79 0
-46 -33 -81 -76 -81 -46 0 -63 9 -79 41 -22 41 -18 77 10 104 26 27 49 31 91
15z"/>
<path d="M8990 7725 c-95 -51 -139 -114 -90 -130 57 -18 230 88 230 142 0 36
-60 31 -140 -12z"/>
<path d="M6155 6474 c-86 -12 -158 -28 -232 -50 -63 -19 -83 -29 -83 -42 0
-17 378 -724 398 -744 5 -5 21 -6 34 -3 20 5 39 31 84 116 56 104 59 108 71
85 7 -13 90 -100 184 -193 210 -205 286 -288 548 -598 197 -231 300 -344 474
-515 137 -136 147 -148 138 -172 -21 -55 46 -120 103 -98 13 5 31 19 40 32 46
65 -21 148 -96 119 -25 -9 -28 -6 -74 62 -116 175 -268 367 -627 788 -171 200
-293 358 -425 548 -51 74 -102 141 -113 149 -12 8 -37 13 -64 10 l-44 -3 33
60 c106 192 175 323 181 346 6 25 4 26 -82 51 -48 15 -113 31 -143 38 -59 12
-256 21 -305 14z m271 -54 c137 -25 234 -63 212 -85 -2 -2 -36 7 -76 20 -39
13 -102 28 -139 34 l-68 9 -47 -51 -48 -52 -47 52 -48 52 -65 -10 c-36 -5 -94
-18 -129 -30 -60 -19 -106 -19 -85 0 15 14 110 42 187 56 89 16 273 19 353 5z
m-226 -422 c30 -170 57 -308 60 -308 4 0 30 136 59 303 29 166 57 306 61 311
15 16 112 -5 137 -30 l25 -25 36 23 36 22 -33 -60 c-17 -32 -94 -173 -169
-311 -75 -139 -141 -253 -147 -253 -10 0 -335 586 -335 604 0 3 11 -1 25 -10
24 -15 26 -15 43 6 19 23 69 39 117 37 l30 -2 55 -307z"/>
<path d="M3160 6329 c-51 -5 -78 -12 -86 -24 -31 -42 20 -65 143 -65 115 0
168 35 111 72 -33 21 -82 26 -168 17z"/>
<path d="M9256 6149 c-14 -11 -26 -25 -26 -30 0 -6 20 -19 45 -30 37 -17 57
-19 125 -13 93 8 133 29 114 61 -15 24 -45 31 -145 32 -73 1 -90 -2 -113 -20z"/>
<path d="M5903 6003 c-7 -2 -31 -28 -53 -56 -72 -91 -221 -236 -370 -361 -174
-146 -295 -259 -349 -330 -41 -53 -41 -53 -89 -48 -44 4 -51 1 -70 -23 -65
-83 41 -183 115 -109 22 22 25 32 21 69 -5 39 -3 44 21 56 98 50 235 150 461
337 133 110 271 207 354 249 28 14 63 37 79 51 63 59 17 173 -70 171 -21 0
-44 -3 -50 -6z"/>
<path d="M3612 4805 c-54 -24 -151 -96 -158 -118 -8 -26 21 -50 50 -41 43 12
148 66 167 87 64 68 29 110 -59 72z"/>
<path d="M8806 4667 c-16 -12 -16 -15 6 -47 35 -51 185 -128 223 -114 47 18
-13 91 -116 143 -69 34 -87 37 -113 18z"/>
<path d="M7402 4378 c-188 -175 -384 -289 -672 -391 -165 -59 -432 -88 -625
-68 -230 24 -412 86 -723 247 -194 99 -242 114 -242 70 0 -55 76 -112 295
-217 170 -82 355 -149 495 -180 94 -21 130 -24 330 -24 194 0 238 3 320 22
319 72 629 228 864 436 69 61 101 115 92 153 -11 44 -49 31 -134 -48z"/>
<path d="M4695 3678 c-32 -25 -107 -173 -103 -203 4 -30 49 -31 75 -3 48 51
93 141 93 185 0 35 -3 43 -19 43 -10 0 -31 -10 -46 -22z"/>
<path d="M7683 3605 c-12 -32 7 -87 54 -154 53 -78 88 -105 103 -81 16 26 11
53 -24 126 -45 95 -116 153 -133 109z"/>
<path d="M6180 3229 c-20 -38 -21 -51 -15 -132 6 -70 12 -94 27 -109 20 -20
20 -20 40 0 31 31 38 192 10 241 -10 19 -24 37 -30 39 -6 2 -21 -16 -32 -39z"/>
<path d="M9773 10829 c-22 -7 -33 -16 -33 -28 0 -25 16 -30 65 -18 73 17 220
1 345 -36 63 -19 130 -41 147 -48 26 -10 35 -11 45 -1 10 10 9 16 -4 28 -20
21 -115 59 -182 74 -28 7 -76 18 -107 26 -62 16 -226 17 -276 3z"/>
<path d="M9707 10660 c-50 -4 -83 -12 -93 -22 -30 -30 -8 -40 74 -33 156 12
191 12 278 0 119 -17 220 -48 328 -102 87 -43 121 -49 114 -17 -5 25 -142 93
-253 126 -102 30 -271 58 -335 56 -19 0 -70 -4 -113 -8z"/>
<path d="M2301 10494 c-57 -8 -141 -27 -185 -42 -66 -22 -82 -32 -84 -50 -4
-28 9 -28 100 2 136 46 373 61 472 31 53 -16 66 -13 66 15 0 22 -39 35 -152
50 -88 11 -87 11 -217 -6z"/>
<path d="M2295 10303 c-22 -2 -86 -13 -143 -25 -108 -22 -157 -47 -135 -68 8
-9 34 -7 108 10 140 32 238 38 378 23 193 -20 182 -20 182 1 0 25 -71 44 -195
51 -52 3 -108 7 -125 8 -16 1 -48 1 -70 0z"/>
<path d="M11817 8914 c-4 -4 -7 -60 -7 -125 0 -72 -6 -144 -16 -186 -21 -92
-72 -244 -99 -301 -19 -39 -21 -49 -10 -61 23 -23 33 -10 100 144 53 119 89
357 75 485 -5 43 -24 62 -43 44z"/>
<path d="M11999 8853 c-1 -5 -2 -80 -3 -168 -2 -146 -5 -169 -34 -265 -17 -58
-42 -125 -56 -150 -26 -47 -23 -78 7 -67 21 8 67 88 89 154 45 137 63 446 28
488 -13 16 -29 20 -31 8z"/>
<path d="M866 8493 c-29 -59 -41 -147 -40 -313 1 -147 4 -176 28 -265 37 -135
61 -188 83 -183 23 5 21 23 -17 133 -17 50 -37 131 -43 180 -15 110 -7 300 17
368 20 61 21 107 1 107 -8 0 -21 -12 -29 -27z"/>
<path d="M671 8388 c-5 -13 -14 -54 -21 -93 -30 -180 46 -533 102 -477 10 10
10 19 -1 45 -55 137 -58 170 -47 501 1 45 -19 60 -33 24z"/>
</g>
</svg>
